# Blender 5.0.1
# www.blender.org
mtllib stage.mtl
o Cube.002
v -12.000000 -10.546160 18.693264
v -12.000000 -7.546160 18.693264
v -12.000000 -10.546160 6.693264
v -12.000000 -7.546160 6.693264
v 12.000000 -10.546160 18.693264
v 12.000000 -7.546160 18.693264
v 12.000000 -10.546160 6.693264
v 12.000000 -7.546160 6.693264
v -12.000000 -7.546160 6.693264
v -12.000000 -10.546160 6.693264
v 12.000000 -10.546160 6.693264
v 12.000000 -7.546160 6.693264
v 9.135381 -7.546160 1.294839
v 12.000000 -10.546160 4.264682
v 16.019176 -10.546160 8.693516
v -7.211194 -10.546160 1.294839
v -16.113516 -10.546160 8.876039
v 15.218246 -7.546160 6.693264
v 16.019176 -10.546160 18.693264
v 16.019176 -7.546160 18.693264
v -16.113516 -10.546160 18.693264
v -16.113516 -7.546160 18.693264
v 12.000000 -7.546160 6.693264
v -12.000000 -10.546160 4.392372
v 12.000000 -7.546160 3.284306
v 7.352018 -10.546160 1.294839
v 14.245943 -10.546160 6.693264
v -12.000000 -7.546160 3.677245
v -12.000000 -10.546160 4.737350
v -8.988230 -7.546160 1.294839
v 16.019176 -7.546160 8.843426
v 14.866662 -10.546160 8.307629
v 16.019176 -7.546160 8.110224
v -16.113516 -7.546160 8.736799
v -14.048501 -10.546160 6.693264
v -14.998734 -10.546160 8.862499
v -15.289269 -7.546160 6.693264
v -16.113516 -7.546160 8.385568
v -12.000000 -10.546160 22.192408
v -12.000000 -7.546160 22.192408
v 12.000000 -7.546160 22.192408
v 12.000000 -10.546160 22.192408
v 16.019176 -7.546160 22.192408
v 16.019176 -10.546160 22.192408
v -16.113516 -10.546160 22.192408
v -16.113516 -7.546160 22.192408
vn -0.0000 1.0000 -0.0000
vn -0.0000 -1.0000 -0.0000
vn 1.0000 -0.0000 -0.0000
vn -1.0000 -0.0000 -0.0000
vn -0.0000 -0.0000 1.0000
vt 0.875000 0.750000
vt 0.875000 0.500000
vt 0.875000 0.535256
vt 0.875000 0.542574
vt 0.625000 0.500000
vt 0.375000 0.500000
vt 0.375000 0.750000
vt 0.125000 0.750000
vt 0.125000 0.500000
vt 0.625000 0.750000
vt 0.375000 0.541672
vt 0.625000 0.544795
vt 0.375000 0.250000
vt 0.625000 0.250000
vt 0.174883 0.500000
vt 0.326584 0.500000
vt 0.654840 0.500000
vt 0.843627 0.500000
vt 0.375000 0.533633
vt 0.625000 0.529520
vt 0.375000 0.000000
vt 0.625000 0.000000
vt 0.625000 0.207426
vt 0.375000 0.204526
vt 0.125000 0.545474
vt 0.125000 0.545192
vt 0.625000 1.000000
vt 0.375000 1.000000
s 0
f 2/1/1 4/2/1 37/2/1 38/3/1 34/4/1 22/1/1
f 8/5/1 7/6/1 11/6/1 12/5/1
f 5/7/2 19/7/2 44/7/2 42/7/2
f 1/8/2 5/7/2 42/7/2 39/8/2
f 3/9/2 7/6/2 5/7/2 1/8/2
f 8/5/1 4/2/1 2/1/1 6/10/1
f 15/11/3 31/12/3 20/10/3 19/7/3
f 7/6/1 3/9/1 10/9/1 11/6/1
f 4/2/1 8/5/1 23/5/1 9/2/1
f 3/13/1 4/14/1 9/14/1 10/13/1
f 11/6/2 10/9/2 29/9/2 24/9/2 16/15/2 26/16/2 14/6/2
f 9/2/1 23/5/1 25/5/1 13/17/1 30/18/1 28/2/1
f 10/13/4 9/14/4 28/14/4 29/13/4
f 5/7/2 7/6/2 27/6/2 32/19/2 15/11/2 19/7/2
f 8/5/1 6/10/1 20/10/1 31/12/1 33/20/1 18/5/1
f 21/21/4 22/22/4 34/23/4 17/24/4
f 3/9/2 1/8/2 21/8/2 17/25/2 36/26/2 35/9/2
f 22/22/4 21/21/4 45/21/4 46/22/4
f 41/10/5 42/7/5 44/7/5 43/10/5
f 42/7/5 41/10/5 40/27/5 39/28/5
f 39/28/5 40/27/5 46/27/5 45/28/5
f 21/8/2 1/8/2 39/8/2 45/8/2
f 20/10/1 6/10/1 41/10/1 43/10/1
f 6/10/1 2/1/1 40/1/1 41/10/1
f 19/7/3 20/10/3 43/10/3 44/7/3
f 2/1/1 22/1/1 46/1/1 40/1/1
